<svg xmlns="http://www.w3.org/2000/svg" xmlns:xlink="http://www.w3.org/1999/xlink" viewBox="0 0 16 12.61"><defs><style>.cls-1{fill:none;}.cls-2{clip-path:url(#clip-path);}.cls-3{fill:#892cdf;}.cls-4{fill:#892cde;}.cls-5{fill:#882ddd;}.cls-6{fill:#882ddc;}.cls-7{fill:#872ddb;}.cls-8{fill:#872eda;}.cls-9{fill:#872ed9;}.cls-10{fill:#862ed8;}.cls-11{fill:#862fd7;}.cls-12{fill:#862fd6;}.cls-13{fill:#8530d5;}.cls-14{fill:#8530d4;}.cls-15{fill:#8430d3;}.cls-16{fill:#8431d2;}.cls-17{fill:#8431d1;}.cls-18{fill:#8331d0;}.cls-19{fill:#8332cf;}.cls-20{fill:#8332ce;}.cls-21{fill:#8232cd;}.cls-22{fill:#8233cc;}.cls-23{fill:#8133cb;}.cls-24{fill:#8133ca;}.cls-25{fill:#8134c9;}.cls-26{fill:#8034c8;}.cls-27{fill:#8034c7;}.cls-28{fill:#8035c6;}.cls-29{fill:#7f35c5;}.cls-30{fill:#7f35c4;}.cls-31{fill:#7e36c3;}.cls-32{fill:#7e36c2;}.cls-33{fill:#7e36c1;}.cls-34{fill:#7d37c0;}.cls-35{fill:#7d37bf;}.cls-36{fill:#7d37be;}.cls-37{fill:#7c38bd;}.cls-38{fill:#7c38bc;}.cls-39{fill:#7c39bb;}.cls-40{fill:#7b39b9;}.cls-41{fill:#7b39b8;}.cls-42{fill:#7a3ab7;}.cls-43{fill:#7a3ab6;}.cls-44{fill:#7a3ab5;}.cls-45{fill:#793bb4;}.cls-46{fill:#793bb3;}.cls-47{fill:#793bb2;}.cls-48{fill:#783cb1;}.cls-49{fill:#783cb0;}.cls-50{fill:#773caf;}.cls-51{fill:#773dae;}.cls-52{fill:#773dad;}.cls-53{fill:#763dac;}.cls-54{fill:#763eab;}.cls-55{fill:#763eaa;}.cls-56{fill:#753ea9;}.cls-57{fill:#753fa8;}.cls-58{fill:#743fa7;}.cls-59{fill:#743fa6;}.cls-60{fill:#7440a5;}.cls-61{fill:#7340a4;}.cls-62{fill:#7340a3;}.cls-63{fill:#7341a2;}.cls-64{fill:#7241a1;}.cls-65{fill:#7242a0;}.cls-66{fill:#71429f;}.cls-67{fill:#71429e;}.cls-68{fill:#71439d;}.cls-69{fill:#70439c;}.cls-70{fill:#70439b;}</style><clipPath id="clip-path"><rect class="cls-1" x="1.13" y="11.44" width="13.42" height="1.17"/></clipPath></defs><g id="Layer_2" data-name="Layer 2"><path d="M3.65,11.2a4.77,4.77,0,0,1-1.83-.35A2.83,2.83,0,0,1,.49,9.71,3.93,3.93,0,0,1,0,7.61v-4a3.91,3.91,0,0,1,.49-2.1A2.83,2.83,0,0,1,1.82.35,4.77,4.77,0,0,1,3.65,0,5,5,0,0,1,5.6.36,3.29,3.29,0,0,1,7,1.38,2.71,2.71,0,0,1,7.46,3a1.12,1.12,0,0,1-.29.91,1.51,1.51,0,0,1-.89.22A2,2,0,0,1,5.46,4a.61.61,0,0,1-.37-.57,2,2,0,0,0,0-.38,1.35,1.35,0,0,0-.16-.45,1,1,0,0,0-.39-.38,1.6,1.6,0,0,0-.76-.15,1.32,1.32,0,0,0-1,.37,1.6,1.6,0,0,0-.36,1.15v4a1.6,1.6,0,0,0,.36,1.15,1.38,1.38,0,0,0,1,.37A1.43,1.43,0,0,0,4.47,9a.92.92,0,0,0,.39-.39A1.68,1.68,0,0,0,5,8.1a4.66,4.66,0,0,0,.06-.49A.61.61,0,0,1,5.46,7a2.2,2.2,0,0,1,.8-.14,1.47,1.47,0,0,1,.91.22,1.11,1.11,0,0,1,.29.9A3,3,0,0,1,7,9.74,3.19,3.19,0,0,1,5.6,10.83,5,5,0,0,1,3.65,11.2Z"/><path d="M12.19,11.2a4.77,4.77,0,0,1-1.83-.35A2.83,2.83,0,0,1,9,9.71a3.93,3.93,0,0,1-.49-2.1v-4A3.91,3.91,0,0,1,9,1.49,2.83,2.83,0,0,1,10.36.35,4.77,4.77,0,0,1,12.19,0a5,5,0,0,1,2,.36,3.29,3.29,0,0,1,1.36,1A2.71,2.71,0,0,1,16,3a1.12,1.12,0,0,1-.29.91,1.52,1.52,0,0,1-.9.22A2,2,0,0,1,14,4a.61.61,0,0,1-.37-.57,2,2,0,0,0,0-.38,1.35,1.35,0,0,0-.16-.45A1,1,0,0,0,13,2.22a1.63,1.63,0,0,0-.76-.15,1.31,1.31,0,0,0-1,.37,1.6,1.6,0,0,0-.36,1.15v4a1.6,1.6,0,0,0,.36,1.15,1.38,1.38,0,0,0,1,.37A1.43,1.43,0,0,0,13,9a.92.92,0,0,0,.39-.39,1.68,1.68,0,0,0,.17-.49,4.66,4.66,0,0,0,.06-.49A.61.61,0,0,1,14,7a2.2,2.2,0,0,1,.8-.14,1.49,1.49,0,0,1,.91.22A1.11,1.11,0,0,1,16,8a3,3,0,0,1-.5,1.72,3.19,3.19,0,0,1-1.36,1.09A5,5,0,0,1,12.19,11.2Z"/><g class="cls-2"><polygon class="cls-3" points="2.85 11.44 1.13 11.46 1.13 11.44 2.85 11.44"/><polygon class="cls-4" points="4.63 11.44 1.13 11.48 1.13 11.46 2.85 11.44 4.63 11.44"/><polygon class="cls-5" points="6.41 11.44 1.13 11.5 1.13 11.48 4.63 11.44 6.41 11.44"/><polygon class="cls-6" points="8.19 11.44 1.13 11.52 1.13 11.5 6.41 11.44 8.19 11.44"/><polygon class="cls-7" points="9.96 11.44 1.13 11.54 1.13 11.52 8.19 11.44 9.96 11.44"/><polygon class="cls-8" points="11.74 11.44 1.13 11.56 1.13 11.54 9.96 11.44 11.74 11.44"/><polygon class="cls-9" points="13.52 11.44 1.13 11.58 1.13 11.56 11.74 11.44 13.52 11.44"/><polygon class="cls-10" points="14.55 11.45 1.13 11.6 1.13 11.58 13.52 11.44 14.55 11.44 14.55 11.45"/><polygon class="cls-11" points="14.55 11.47 1.13 11.62 1.13 11.6 14.55 11.45 14.55 11.47"/><polygon class="cls-12" points="14.55 11.49 1.13 11.64 1.13 11.62 14.55 11.47 14.55 11.49"/><polygon class="cls-13" points="14.55 11.51 1.13 11.65 1.13 11.64 14.55 11.49 14.55 11.51"/><polygon class="cls-14" points="14.55 11.53 1.13 11.68 1.13 11.65 14.55 11.51 14.55 11.53"/><polygon class="cls-15" points="14.55 11.55 1.13 11.69 1.13 11.68 14.55 11.53 14.55 11.55"/><polygon class="cls-16" points="14.55 11.57 1.13 11.71 1.13 11.69 14.55 11.55 14.55 11.57"/><polygon class="cls-17" points="14.55 11.59 1.13 11.73 1.13 11.71 14.55 11.57 14.55 11.59"/><polygon class="cls-18" points="14.55 11.61 1.13 11.75 1.13 11.73 14.55 11.59 14.55 11.61"/><polygon class="cls-19" points="14.55 11.63 1.13 11.77 1.13 11.75 14.55 11.61 14.55 11.63"/><polygon class="cls-20" points="14.55 11.64 1.13 11.79 1.13 11.77 14.55 11.63 14.55 11.64"/><polygon class="cls-21" points="14.55 11.66 1.13 11.81 1.13 11.79 14.55 11.64 14.55 11.66"/><polygon class="cls-22" points="14.55 11.68 1.13 11.83 1.13 11.81 14.55 11.66 14.55 11.68"/><polygon class="cls-23" points="14.55 11.7 1.13 11.85 1.13 11.83 14.55 11.68 14.55 11.7"/><polygon class="cls-24" points="14.55 11.72 1.13 11.87 1.13 11.85 14.55 11.7 14.55 11.72"/><polygon class="cls-25" points="14.55 11.74 1.13 11.89 1.13 11.87 14.55 11.72 14.55 11.74"/><polygon class="cls-26" points="14.55 11.76 1.13 11.91 1.13 11.89 14.55 11.74 14.55 11.76"/><polygon class="cls-27" points="14.55 11.78 1.13 11.93 1.13 11.91 14.55 11.76 14.55 11.78"/><polygon class="cls-28" points="14.55 11.8 1.13 11.95 1.13 11.93 14.55 11.78 14.55 11.8"/><polygon class="cls-29" points="14.55 11.82 1.13 11.97 1.13 11.95 14.55 11.8 14.55 11.82"/><polygon class="cls-30" points="14.55 11.84 1.13 11.99 1.13 11.97 14.55 11.82 14.55 11.84"/><polygon class="cls-31" points="14.55 11.86 1.13 12.01 1.13 11.99 14.55 11.84 14.55 11.86"/><polygon class="cls-32" points="14.55 11.88 1.13 12.03 1.13 12.01 14.55 11.86 14.55 11.88"/><polygon class="cls-33" points="14.55 11.9 1.13 12.05 1.13 12.03 14.55 11.88 14.55 11.9"/><polygon class="cls-34" points="14.55 11.92 1.13 12.07 1.13 12.05 14.55 11.9 14.55 11.92"/><polygon class="cls-35" points="14.55 11.94 1.13 12.09 1.13 12.07 14.55 11.92 14.55 11.94"/><polygon class="cls-36" points="14.55 11.96 1.13 12.11 1.13 12.09 14.55 11.94 14.55 11.96"/><polygon class="cls-37" points="14.55 11.98 1.13 12.13 1.13 12.11 14.55 11.96 14.55 11.98"/><polygon class="cls-38" points="14.55 12 1.13 12.14 1.13 12.13 14.55 11.98 14.55 12"/><polygon class="cls-39" points="14.55 12.02 1.13 12.16 1.13 12.14 14.55 12 14.55 12.02"/><polygon class="cls-40" points="14.55 12.04 1.13 12.18 1.13 12.16 14.55 12.02 14.55 12.04"/><polygon class="cls-41" points="14.55 12.06 1.13 12.2 1.13 12.18 14.55 12.04 14.55 12.06"/><polygon class="cls-42" points="14.55 12.07 1.13 12.22 1.13 12.2 14.55 12.06 14.55 12.07"/><polygon class="cls-43" points="14.55 12.1 1.13 12.24 1.13 12.22 14.55 12.07 14.55 12.1"/><polygon class="cls-44" points="14.55 12.11 1.13 12.26 1.13 12.24 14.55 12.1 14.55 12.11"/><polygon class="cls-45" points="14.55 12.13 1.13 12.28 1.13 12.26 14.55 12.11 14.55 12.13"/><polygon class="cls-46" points="14.55 12.15 1.13 12.3 1.13 12.28 14.55 12.13 14.55 12.15"/><polygon class="cls-47" points="14.55 12.17 1.13 12.32 1.13 12.3 14.55 12.15 14.55 12.17"/><polygon class="cls-48" points="14.55 12.19 1.13 12.34 1.13 12.32 14.55 12.17 14.55 12.19"/><polygon class="cls-49" points="14.55 12.21 1.13 12.36 1.13 12.34 14.55 12.19 14.55 12.21"/><polygon class="cls-50" points="14.55 12.23 1.13 12.38 1.13 12.36 14.55 12.21 14.55 12.23"/><polygon class="cls-51" points="14.55 12.25 1.13 12.4 1.13 12.38 14.55 12.23 14.55 12.25"/><polygon class="cls-52" points="14.55 12.27 1.13 12.42 1.13 12.4 14.55 12.25 14.55 12.27"/><polygon class="cls-53" points="14.55 12.29 1.13 12.44 1.13 12.42 14.55 12.27 14.55 12.29"/><polygon class="cls-54" points="14.55 12.31 1.13 12.46 1.13 12.44 14.55 12.29 14.55 12.31"/><polygon class="cls-55" points="14.55 12.33 1.13 12.48 1.13 12.46 14.55 12.31 14.55 12.33"/><polygon class="cls-56" points="14.55 12.35 1.13 12.5 1.13 12.48 14.55 12.33 14.55 12.35"/><polygon class="cls-57" points="14.55 12.37 1.13 12.52 1.13 12.5 14.55 12.35 14.55 12.37"/><polygon class="cls-58" points="14.55 12.39 1.13 12.54 1.13 12.52 14.55 12.37 14.55 12.39"/><polygon class="cls-59" points="14.55 12.41 1.13 12.56 1.13 12.54 14.55 12.39 14.55 12.41"/><polygon class="cls-60" points="14.55 12.43 1.13 12.58 1.13 12.56 14.55 12.41 14.55 12.43"/><polygon class="cls-61" points="14.55 12.45 1.13 12.6 1.13 12.58 14.55 12.43 14.55 12.45"/><polygon class="cls-62" points="14.55 12.47 1.39 12.61 1.13 12.61 1.13 12.6 14.55 12.45 14.55 12.47"/><polygon class="cls-63" points="14.55 12.49 3.17 12.61 1.39 12.61 14.55 12.47 14.55 12.49"/><polygon class="cls-64" points="14.55 12.51 4.95 12.61 3.17 12.61 14.55 12.49 14.55 12.51"/><polygon class="cls-65" points="14.55 12.53 6.73 12.61 4.95 12.61 14.55 12.51 14.55 12.53"/><polygon class="cls-66" points="14.55 12.54 8.51 12.61 6.73 12.61 14.55 12.53 14.55 12.54"/><polygon class="cls-67" points="14.55 12.56 10.28 12.61 8.51 12.61 14.55 12.54 14.55 12.56"/><polygon class="cls-68" points="14.55 12.59 12.06 12.61 10.28 12.61 14.55 12.56 14.55 12.59"/><polygon class="cls-69" points="14.55 12.6 13.84 12.61 12.06 12.61 14.55 12.59 14.55 12.6"/><polygon class="cls-70" points="13.84 12.61 14.55 12.6 14.55 12.61 13.84 12.61"/></g></g></svg>